.
 
http://www.scenetime.com    -  Hottest private tracker on the net. !!!

Sign up will close shortly !!  Join now 

        Seed back for speed


...................................NFO:.................................................[pre]  
    *********** ****    ****      ***      ******** *********** ****    *** **********
           *+*     +*+*+* *+*+*+   *+* *+*   *+*    *+*    *+*     *+*+*   *+* *+*        
           +*+     +*+ +*+*+ +*+  +*+   +*+  +*+           +*+     *+*+*+  +*+ +*+        
           +$+     +$+  +*+  +$+ +$++*++$++* *$*           +$+     +$+ +*+ +$+ +$++*++$  
           +$+     +$+       +$+ +$+     +$+ +$+   +$+$    +$+     +$+  +$+$+$ +$+        
           $+$     $+$       $+$ $+$     $+$ $+$    $+$    $+$     $+$   $+$+$ $+$        
       $$$$$$$$$$$ $$$       $$$ $$$     $$$  $$$$$$$$ $$$$$$$$$$$ $$$    $$$$ $$$$$$$$$$     
                                                



                           Another Fine Release Brought to you from - IMAGiNE                   
                                                 

********************************************************************************************************************                                
                          X-Men First Class 2011 720P BRRiP XViD AC3 - IMAGiNE
********************************************************************************************************************

Ripper ...........: IMAGiNE                                      IMDB Rating.......:8.0/10                             
Video Codec.......: XVID                                         Release Date......:25/08/11
Audio Codec.......:AC3                                           Theatre Date......:03/06/11
Audio Bitrate.....:448                                           Runtime.......:2h 10mn
Subtitles.........:ENGLISH WHEN NEEDED                           Language..........:ENGLISH
Resolution...... 1280 x 544                                      IMDb URL..........:http://www.imdb.com/title/tt1270798/


[color=yellow]DETAILS:[/color]

Video
ID                               : 0
Format                           : MPEG-4 Visual
Format profile                   : Advanced Simple@L5
Format settings, BVOP            : 2
Format settings, QPel            : No
Format settings, GMC             : No warppoints
Format settings, Matrix          : Default (MPEG)
Muxing mode                      : Packed bitstream
Codec ID                         : XVID
Codec ID/Hint                    : XviD
Duration                         : 2h 11mn
Bit rate                         : 3 345 Kbps
Width                            : 1 280 pixels
Height                           : 544 pixels
Display aspect ratio             : 2.35:1
Frame rate                       : 23.976 fps
Color space                      : YUV
Chroma subsampling               : 4:2:0
Bit depth                        : 8 bits
Scan type                        : Progressive
Compression mode                 : Lossy
Bits/(Pixel*Frame)               : 0.200
Stream size                      : 3.08 GiB (88%)
Writing library                  : XviD 64

Audio
ID                               : 1
Format                           : AC-3
Format/Info                      : Audio Coding 3
Mode extension                   : CM (complete main)
Codec ID                         : 2000
Duration                         : 2h 11mn
Bit rate mode                    : Constant
Bit rate                         : 448 Kbps
Channel(s)                       : 6 channels
Channel positions                : Front: L C R, Side: L R, LFE
Sampling rate                    : 48.0 KHz
Bit depth                        : 16 bits
Compression mode                 : Lossy
Stream size                      : 422 MiB (12%)
Alignment                        : Aligned on interleaves
Interleave, duration             : 42 ms (1.00 video frame)




[color=yellow]SOURCES:[/color]

VIDEO: .............. First.Class.2011.BluRay.720p.x264.DTS-HDChina.mkv Thanks :D
AUDIO: .............. First.Class.2011.BluRay.720p.x264.DTS-HDChina.mkv Thanks Matey :P

[color=yellow]NOTES:[/color]

IMAGiNE bringing you another release..........
X-Men First Class 2011 720P.........
Well here we have another one :P
This time around we made a script
to sharpen and converted the DTS
to AC3 and remuxed :P
English Subs taken from the R5 had times
adjusted and hardcoded when needed :D
All subs properly translated ;)
Enjoy Folks!

[color=yellow]SCREENS:[/color]

[IMG]http://i.imgur.com/18wnw.jpg[/IMG]
[IMG]http://i.imgur.com/a2zP6.jpg[/IMG]
[IMG]http://i.imgur.com/KntNT.jpg[/IMG]
[IMG]http://i.imgur.com/L181v.jpg[/IMG]
[IMG]http://i.imgur.com/wsQ4e.jpg[/IMG]

[color=yellow]GREETS:[/color]

FLAWL3SS,ViSiON,Rx,ELEKTRI4KA,ADDiCTED,Autotron,CiNEDUB,
And to all the other p2p grps past and present 

[COLOR=RED]Looking for these,syncers,cammers,audio,silver supplier.....Have anything to offer????......
Contact us imaginegroup@hushmail.com[/COLOR][/pre]